<svg xmlns="http://www.w3.org/2000/svg" viewBox="-20 -18 240 276" style="overflow:visible"><defs><filter id="dzc66f" x="-20%" y="-20%" width="140%" height="140%" color-interpolation-filters="sRGB"><feTurbulence type="fractalNoise" baseFrequency="0.03" numOctaves="2" seed="29" result="n"></feTurbulence><feDisplacementMap in="SourceGraphic" in2="n" scale="3.4" xChannelSelector="R" yChannelSelector="G" result="d"></feDisplacementMap></filter><pattern id="dzc66p" width="10" height="10" patternUnits="userSpaceOnUse" patternTransform="rotate(0)"><rect width="4.5" height="10" fill="#D8C49C"></rect><circle cx="5" cy="5" r="0" fill="#D8C49C"></circle></pattern></defs><g filter="url(#dzc66f)" stroke="#3A2418" stroke-linecap="round" stroke-linejoin="round"><ellipse cx="100" cy="250" rx="44" ry="6" fill="#3A2418" opacity=".16" stroke="none"></ellipse><path d="M89 214 L87 244 M111 214 L113 244" stroke-width="9" fill="none"></path><path d="M89 214 L87 244 M111 214 L113 244" stroke="#CFC9D6" stroke-width="4.4" fill="none"></path><path d="M73 250 C71 242 85 240 91 246 C93 253 77 255 73 250Z" fill="#5A3A2A" stroke-width="2.6"></path><path d="M127 250 C129 242 115 240 109 246 C107 253 123 255 127 250Z" fill="#5A3A2A" stroke-width="2.6"></path><g style="transform-box: view-box; transform-origin: 74px 154px; animation: auto ease 0s 1 normal none running none;"><path d="M74 154 Q58 176 62 198" stroke-width="12" fill="none"></path><path d="M74 154 Q58 176 62 198" stroke="#F1E4C8" stroke-width="6.6" fill="none"></path><circle cx="62" cy="200" r="6.8" fill="#c6966e" stroke-width="2.8"></circle></g><g style="transform-box: view-box; transform-origin: 100px 222px; animation: auto ease 0s 1 normal none running none;"><path d="M70 146 C62 170 60 196 62 216 Q100 226 138 216 C140 196 138 170 130 146 Q100 138 70 146Z" fill="#F1E4C8" stroke="none"></path><path d="M70 146 C62 170 60 196 62 216 Q100 226 138 216 C140 196 138 170 130 146 Q100 138 70 146Z" fill="url(#dzc66p)" stroke="none"></path><path d="M63 190 Q100 200 137 190 L138 201 Q100 211 62 201Z" fill="#6CC04A" stroke-width="2.4"></path><path d="M70 146 C62 170 60 196 62 216 Q100 226 138 216 C140 196 138 170 130 146 Q100 138 70 146Z" fill="none" stroke-width="3.2"></path></g><path d="M73 160 Q67 178 67 196" stroke="#fff" stroke-width="2.4" opacity=".6" fill="none"></path><path d="M127 168 l5 -3 M128 175 l5 -3 M129 182 l5 -3" stroke-width="1.6" opacity=".45" fill="none"></path><path d="" fill="none" stroke-width="5.6"></path><path d="" fill="none" stroke="none" stroke-width="3"></path><path d="" fill="none" stroke-width="2.2"></path><path d="" fill="none" stroke-width="2"></path><path d="" fill="#2B1240" stroke="none"></path><g transform="translate(82 178)"><path d="" fill="none" stroke-width="2.4"></path><path d="" fill="none" stroke-width="2.4"></path><path d="" fill="none" stroke-width="2.2"></path><text y="0" text-anchor="middle" font-family="Lalezar" font-size="0" fill="none" stroke="none"><span class="sc-interp"></span></text><path d="" fill="none" stroke="#fff" stroke-width="2" opacity=".85"></path></g></g><g style="transform-box: view-box; transform-origin: 100px 148px; animation: auto ease 0s 1 normal none running none;"><g transform=""><path d="" fill="none" stroke-width="3.2"></path></g><path d="" stroke-width="12" fill="none"></path><path d="" stroke="#6CC04A" stroke-width="7" fill="none"></path><path d="" fill="#E8743B" stroke-width="2.2"></path><path d="M66 62 C62 30 82 18 100 18 C118 18 138 30 134 62 C140 96 138 150 100 150 C62 150 60 96 66 62Z" fill="#ECB283" stroke-width="3.4"></path><g transform=""><path d="" fill="none" stroke-width="3"></path><path d="" fill="none" stroke="#fff" stroke-width="2.4" opacity=".45"></path></g><g transform="translate(0 -16) rotate(0 100 40)"><path d="M62 54 Q100 42 138 54 L139 64 Q100 52 61 64Z" fill="#6CC04A" fill-rule="evenodd" stroke-width="3.2"></path><path d="M84 26 q4 -10 10 -4 M100 22 q6 -10 12 0 M70 40 q-2 -10 6 -10" fill="none" stroke="#3A2418" stroke-width="3"></path><path d="M138 58 C150 54 162 60 160 72 C152 68 146 66 138 63Z" fill="#6CC04A" stroke-width="2.4"></path><path d="" fill="none" stroke="none" stroke-width="2.4"></path><path d="" fill="none" stroke-width="2.2"></path><path d="" fill="none" stroke="#fff" stroke-width="2.6" opacity=".65"></path></g><path d="" fill="none" stroke-width="5.4"></path><path d="" fill="none" stroke="none" stroke-width="2.8"></path><path d="" fill="none" stroke-width="2.2"></path><path d="" fill="none" opacity=".75" stroke="none"></path><path d="" fill="none" opacity=".85" stroke="none"></path><ellipse cx="75" cy="104" rx="9" ry="6" fill="#F0604E" opacity=".5" stroke="none"></ellipse><ellipse cx="125" cy="104" rx="9" ry="6" fill="#F0604E" opacity=".5" stroke="none"></ellipse><path d="" stroke="#B8643A" stroke-width="2.4" fill="none" opacity=".7"></path><g style="transform-box: fill-box; transform-origin: 50% 50%; animation: auto ease 0s 1 normal none running none;"><ellipse cx="88" cy="74" rx="11" ry="13" fill="#fff" stroke="#3A2418" stroke-width="2.8"></ellipse><ellipse cx="112" cy="74" rx="11" ry="13" fill="#fff" stroke="#3A2418" stroke-width="2.8"></ellipse><circle cx="88" cy="76" r="3.8" fill="#2A1A12" stroke="none"></circle><circle cx="112" cy="76" r="3.8" fill="#2A1A12" stroke="none"></circle><circle cx="89.6" cy="74.2" r="1.5" fill="#fff" stroke="none"></circle><circle cx="113.6" cy="74.2" r="1.5" fill="#fff" stroke="none"></circle><path d="" fill="#ECB283" stroke="#3A2418" stroke-width="2.8"></path><path d="" fill="none" stroke="#3A2418" stroke-width="3.4"></path></g><path d="" fill="#2B1240" stroke="#2B1240" stroke-width="2.4"></path><path d="M60 104 C54 116 58 128 66 132 C62 144 72 154 82 152 C84 164 98 168 106 160 C116 168 130 160 128 150 C140 152 146 140 140 130 C148 124 148 110 140 104 C124 122 76 122 60 104Z" fill="#2E1E18" stroke-width="3"></path><path d="" fill="none" stroke-width="1.6" opacity=".55"></path><path d="" fill="none" stroke="#2E1E18" stroke-width="3.2" opacity=".8"></path><g transform="translate(0 5)"><path d="" fill="none" stroke="none" stroke-width="7.5"></path><path d="M88 128 Q100 138 112 128" fill="none" stroke-width="3"></path><path d="" fill="none" stroke="#fff" stroke-width="2" opacity=".9"></path><path d="" fill="#fff" stroke-width="1.6"></path></g><g transform="translate(0 0)"><path d="M78 120 C80 108 96 110 100 114 C104 110 120 108 122 120 C114 126 106 122 100 122 C94 122 86 126 78 120Z" fill="#2E1E18" stroke-width="2.6"></path></g><path d="M100 80 C86 82 80 102 88 112 C94 118 112 118 116 108 C120 96 112 82 100 80Z" fill="#ECB283" stroke-width="3"></path><ellipse cx="104" cy="106" rx="9" ry="7" fill="#F26B5E" opacity=".55" stroke="none"></ellipse><path d="M93 90 Q90 96 91 102" fill="none" stroke="#fff" stroke-width="2.4" opacity=".85"></path><path d="" fill="none" stroke-width="2"></path><path d="" fill="none" stroke="none" stroke-width="0"></path><path d="M80 55 Q88 51 96 55 M104 55 Q112 51 120 55" fill="none" stroke="#3A2418" stroke-width="4.4"></path><path d="" fill="none" fill-opacity="0" stroke-width="0"></path><path d="" fill="none" stroke="none" stroke-width="2.4"></path><g transform="matrix(-1 0 0 1 200 0)"><path d="" fill="none" fill-opacity="0" stroke-width="0"></path><path d="" fill="none" stroke="none" stroke-width="2.4"></path></g><path d="" fill="none" stroke-width="0"></path><path d="" fill="none" stroke="none" stroke-width="2.2"></path><path d="" fill="none" stroke="#fff" stroke-width="2" opacity=".85"></path><path d="M66 90 Q66 104 72 114" stroke="#fff" stroke-width="2.6" opacity=".5" fill="none"></path><path d="M148 84 l5 -2 M149 92 l5 -2" stroke-width="1.8" opacity=".45" fill="none"></path></g><g style="transform-box: view-box; transform-origin: 126px 155px; animation: auto ease 0s 1 normal none running none;"><path d="M126 154 Q142 176 138 198" stroke-width="12" fill="none"></path><path d="M126 154 Q142 176 138 198" stroke="#F1E4C8" stroke-width="6.6" fill="none"></path><circle cx="138" cy="200" r="6.8" fill="#c6966e" stroke-width="2.8"></circle></g></svg>