<svg xmlns="http://www.w3.org/2000/svg" viewBox="-20 -18 240 276" style="overflow:visible"><defs><filter id="dzc92f" x="-20%" y="-20%" width="140%" height="140%" color-interpolation-filters="sRGB"><feTurbulence type="fractalNoise" baseFrequency="0.03" numOctaves="2" seed="41" result="n"></feTurbulence><feDisplacementMap in="SourceGraphic" in2="n" scale="3.4" xChannelSelector="R" yChannelSelector="G" result="d"></feDisplacementMap></filter><pattern id="dzc92p" width="10" height="10" patternUnits="userSpaceOnUse" patternTransform="rotate(45)"><rect width="0" height="10" fill="#C6F2A6"></rect><circle cx="5" cy="5" r="2" fill="#C6F2A6"></circle></pattern></defs><g filter="url(#dzc92f)" stroke="#3A2418" stroke-linecap="round" stroke-linejoin="round"><ellipse cx="100" cy="250" rx="44" ry="6" fill="#3A2418" opacity=".16" stroke="none"></ellipse><path d="M89 214 L87 244 M111 214 L113 244" stroke-width="9" fill="none"></path><path d="M89 214 L87 244 M111 214 L113 244" stroke="#CFC9D6" stroke-width="4.4" fill="none"></path><path d="M73 250 C71 242 85 240 91 246 C93 253 77 255 73 250Z" fill="#5A3A2A" stroke-width="2.6"></path><path d="M127 250 C129 242 115 240 109 246 C107 253 123 255 127 250Z" fill="#5A3A2A" stroke-width="2.6"></path><g style="transform-box: view-box; transform-origin: 74px 154px; animation: auto ease 0s 1 normal none running none;"><path d="M74 154 Q58 176 62 198" stroke-width="12" fill="none"></path><path d="M74 154 Q58 176 62 198" stroke="#7ED957" stroke-width="6.6" fill="none"></path><circle cx="62" cy="200" r="6.8" fill="#d0ad8b" stroke-width="2.8"></circle></g><g style="transform-box: view-box; transform-origin: 100px 222px; animation: auto ease 0s 1 normal none running none;"><path d="M70 146 C62 170 60 196 62 216 Q100 226 138 216 C140 196 138 170 130 146 Q100 138 70 146Z" fill="#7ED957" stroke="none"></path><path d="M70 146 C62 170 60 196 62 216 Q100 226 138 216 C140 196 138 170 130 146 Q100 138 70 146Z" fill="url(#dzc92p)" stroke="none"></path><path d="" fill="none" stroke-width="2.4"></path><path d="M70 146 C62 170 60 196 62 216 Q100 226 138 216 C140 196 138 170 130 146 Q100 138 70 146Z" fill="none" stroke-width="3.2"></path></g><path d="M73 160 Q67 178 67 196" stroke="#fff" stroke-width="2.4" opacity=".6" fill="none"></path><path d="M127 168 l5 -3 M128 175 l5 -3 M129 182 l5 -3" stroke-width="1.6" opacity=".45" fill="none"></path><path d="" fill="none" stroke-width="5.6"></path><path d="" fill="none" stroke="none" stroke-width="3"></path><path d="" fill="none" stroke-width="2.2"></path><path d="" fill="none" stroke-width="2"></path><path d="" fill="#2B1240" stroke="none"></path><g transform="translate(82 178)"><path d="" fill="none" stroke-width="2.4"></path><path d="" fill="none" stroke-width="2.4"></path><path d="" fill="none" stroke-width="2.2"></path><text y="0" text-anchor="middle" font-family="Lalezar" font-size="0" fill="none" stroke="none"><span class="sc-interp"></span></text><path d="" fill="none" stroke="#fff" stroke-width="2" opacity=".85"></path></g></g><g style="transform-box: view-box; transform-origin: 100px 148px; animation: auto ease 0s 1 normal none running none;"><g transform=""><path d="" fill="none" stroke-width="3.2"></path></g><path d="M56 92 C48 118 50 146 56 168 M144 92 C152 118 150 146 144 168" stroke-width="12" fill="none"></path><path d="M56 92 C48 118 50 146 56 168 M144 92 C152 118 150 146 144 168" stroke="#5A3424" stroke-width="7" fill="none"></path><path d="" fill="#E8743B" stroke-width="2.2"></path><path d="M100 34 C134 34 152 60 152 94 C152 128 130 150 100 150 C70 150 48 128 48 94 C48 60 66 34 100 34Z" fill="#F8CEA6" stroke-width="3.4"></path><g transform=""><path d="" fill="none" stroke-width="3"></path><path d="" fill="none" stroke="#fff" stroke-width="2.4" opacity=".45"></path></g><g transform="translate(0 0) rotate(0 100 40)"><path d="M52 92 C46 50 70 30 100 30 C130 30 154 50 148 92 C140 66 120 54 100 60 C80 54 60 66 52 92Z" fill="#5A3424" fill-rule="evenodd" stroke-width="3.2"></path><path d="M78 42 Q88 50 94 58 M110 40 Q118 50 122 58" fill="none" stroke="rgba(255,255,255,.35)" stroke-width="2.4"></path><path d="M126 38 L142 28 L142 48 Z M126 38 L110 28 L110 48 Z" fill="#FF5C8A" stroke-width="2.4"></path><path d="" fill="none" stroke="none" stroke-width="2.4"></path><path d="" fill="none" stroke-width="2.2"></path><path d="M66 56 Q74 42 88 38" fill="none" stroke="#fff" stroke-width="2.6" opacity=".65"></path></g><path d="" fill="none" stroke-width="5.4"></path><path d="" fill="none" stroke="none" stroke-width="2.8"></path><path d="" fill="none" stroke-width="2.2"></path><path d="" fill="none" opacity=".75" stroke="none"></path><path d="" fill="none" opacity=".85" stroke="none"></path><ellipse cx="75" cy="104" rx="9" ry="6" fill="#F0604E" opacity=".5" stroke="none"></ellipse><ellipse cx="125" cy="104" rx="9" ry="6" fill="#F0604E" opacity=".5" stroke="none"></ellipse><path d="" stroke="#B8643A" stroke-width="2.4" fill="none" opacity=".7"></path><g style="transform-box: fill-box; transform-origin: 50% 50%; animation: auto ease 0s 1 normal none running none;"><ellipse cx="88" cy="74" rx="11" ry="13" fill="#fff" stroke="#3A2418" stroke-width="2.8"></ellipse><ellipse cx="112" cy="74" rx="11" ry="13" fill="#fff" stroke="#3A2418" stroke-width="2.8"></ellipse><circle cx="88" cy="76" r="3.8" fill="#2A1A12" stroke="none"></circle><circle cx="112" cy="76" r="3.8" fill="#2A1A12" stroke="none"></circle><circle cx="89.6" cy="74.2" r="1.5" fill="#fff" stroke="none"></circle><circle cx="113.6" cy="74.2" r="1.5" fill="#fff" stroke="none"></circle><path d="" fill="#F8CEA6" stroke="#3A2418" stroke-width="2.8"></path><path d="" fill="none" stroke="#3A2418" stroke-width="3.4"></path></g><path d="" fill="#2B1240" stroke="#2B1240" stroke-width="2.4"></path><path d="" fill="#2E1E18" stroke-width="3"></path><path d="" fill="none" stroke-width="1.6" opacity=".55"></path><path d="" fill="none" stroke="#2E1E18" stroke-width="3.2" opacity=".8"></path><g transform="translate(0 0)"><path d="" fill="none" stroke="none" stroke-width="7.5"></path><path d="M88 128 Q100 138 112 128" fill="none" stroke-width="3"></path><path d="" fill="none" stroke="#fff" stroke-width="2" opacity=".9"></path><path d="" fill="#fff" stroke-width="1.6"></path></g><g transform="translate(0 0)"><path d="" fill="#2E1E18" stroke-width="2.6"></path></g><path d="M100 90 C90 90 88 104 96 107 C102 110 112 106 110 97 C109 92 105 90 100 90Z" fill="#F8CEA6" stroke-width="3"></path><ellipse cx="102" cy="101" rx="5" ry="4" fill="#F26B5E" opacity=".55" stroke="none"></ellipse><path d="M95 95 Q94 98 95 101" fill="none" stroke="#fff" stroke-width="2.4" opacity=".85"></path><path d="" fill="none" stroke-width="2"></path><path d="" fill="none" stroke="none" stroke-width="0"></path><path d="M80 55 Q88 51 96 55 M104 55 Q112 51 120 55" fill="none" stroke="#3A2418" stroke-width="4.4"></path><path d="" fill="none" fill-opacity="0" stroke-width="0"></path><path d="" fill="none" stroke="none" stroke-width="2.4"></path><g transform="matrix(-1 0 0 1 200 0)"><path d="" fill="none" fill-opacity="0" stroke-width="0"></path><path d="" fill="none" stroke="none" stroke-width="2.4"></path></g><path d="" fill="none" stroke-width="0"></path><path d="" fill="none" stroke="none" stroke-width="2.2"></path><path d="" fill="none" stroke="#fff" stroke-width="2" opacity=".85"></path><path d="M66 90 Q66 104 72 114" stroke="#fff" stroke-width="2.6" opacity=".5" fill="none"></path><path d="M148 84 l5 -2 M149 92 l5 -2" stroke-width="1.8" opacity=".45" fill="none"></path></g><g style="transform-box: view-box; transform-origin: 126px 155px; animation: auto ease 0s 1 normal none running none;"><path d="M126 154 Q142 176 138 198" stroke-width="12" fill="none"></path><path d="M126 154 Q142 176 138 198" stroke="#7ED957" stroke-width="6.6" fill="none"></path><circle cx="138" cy="200" r="6.8" fill="#d0ad8b" stroke-width="2.8"></circle></g></svg>