<svg xmlns="http://www.w3.org/2000/svg" viewBox="-4 -4 72 72" style="overflow:visible"><defs><filter id="dzi1f" x="-15%" y="-15%" width="130%" height="130%" color-interpolation-filters="sRGB"><feTurbulence type="fractalNoise" baseFrequency="0.06" numOctaves="2" seed="31" result="n"></feTurbulence><feDisplacementMap in="SourceGraphic" in2="n" scale="1.8" xChannelSelector="R" yChannelSelector="G"></feDisplacementMap></filter></defs><g filter="url(#dzi1f)" stroke="#3A2418" stroke-linejoin="round" stroke-linecap="round"><ellipse cx="32" cy="63" rx="18" ry="2.6" fill="#3A2418" opacity=".14" stroke="none"></ellipse><path d="M10 34a22 22 0 1 0 44 0a22 22 0 1 0 -44 0" fill="#D98A0B" stroke="#3A2418" stroke-width="2.4"></path><path d="M10 31a22 22 0 1 0 44 0a22 22 0 1 0 -44 0" fill="#FFC93C" stroke="#3A2418" stroke-width="2.4"></path><path d="M17 31a15 15 0 1 0 30 0a15 15 0 1 0 -30 0" fill="none" stroke="#C48A0E" stroke-width="2"></path><path d="M17 21 q4 -7 11 -9" fill="none" stroke="#fff" stroke-width="2.4"></path><text x="32" y="40" text-anchor="middle" font-family="Lalezar" font-size="22" fill="#7A4A00" stroke="none"><span class="sc-interp">۲</span></text></g></svg>